<svg xmlns="http://www.w3.org/2000/svg" xmlns:xlink="http://www.w3.org/1999/xlink" version="1.1" x="0px" y="0px" fill="#FFF" viewBox="0 0 100 100" style="enable-background:new 0 0 100 100;" xml:space="preserve"><path d="M63.4,55c-2.1,5.6-7.4,9.3-13.4,9.3S38.7,60.5,36.6,55l-0.4-1H16.7l0.3,1.8c2.8,16.1,16.7,27.7,33,27.7s30.2-11.7,33-27.7  l0.3-1.8H63.7L63.4,55z M79.7,57C76.5,70.7,64.3,80.5,50,80.5S23.5,70.7,20.3,57h13.9c2.8,6.2,9,10.3,15.8,10.3S63,63.2,65.8,57  H79.7z"></path><path d="M50,6.5C26,6.5,6.5,26,6.5,50C6.5,74,26,93.5,50,93.5S93.5,74,93.5,50C93.5,26,74,6.5,50,6.5z M50,90.5  C27.7,90.5,9.5,72.3,9.5,50C9.5,27.7,27.7,9.5,50,9.5S90.5,27.7,90.5,50C90.5,72.3,72.3,90.5,50,90.5z"></path><path d="M42,50c0,4.4,3.6,8,8,8s8-3.6,8-8s-3.6-8-8-8S42,45.6,42,50z M55,50c0,2.7-2.2,5-5,5s-5-2.2-5-5s2.2-5,5-5S55,47.3,55,50z"></path><path d="M36.6,45c2.1-5.6,7.4-9.3,13.4-9.3s11.3,3.7,13.4,9.3l0.4,1h19.6L83,44.2c-2.8-16.1-16.7-27.7-33-27.7S19.8,28.2,17,44.2  L16.7,46h19.6L36.6,45z"></path></svg>